<svg height="512pt" viewBox="-2 0 512 512.001" width="512pt" xmlns="http://www.w3.org/2000/svg"><path d="m324.054688 73.738281h-200.84375c-4.136719 0-7.492188 3.355469-7.492188 7.492188 0 4.140625 3.355469 7.496093 7.492188 7.496093h200.84375c4.136718 0 7.492187-3.355468 7.492187-7.496093 0-4.136719-3.355469-7.492188-7.492187-7.492188zm0 0"/><path d="m123.210938 122.539062h29.554687c4.136719 0 7.492187-3.355468 7.492187-7.492187 0-4.140625-3.355468-7.496094-7.492187-7.496094h-29.554687c-4.136719 0-7.492188 3.355469-7.492188 7.496094 0 4.136719 3.355469 7.492187 7.492188 7.492187zm0 0"/><path d="m281.972656 107.550781h-93.878906c-4.136719 0-7.492188 3.355469-7.492188 7.496094 0 4.136719 3.355469 7.492187 7.492188 7.492187h93.878906c4.136719 0 7.492188-3.355468 7.492188-7.492187 0-4.140625-3.355469-7.496094-7.492188-7.496094zm0 0"/><path d="m192.800781 182.246094h-69.589843c-4.136719 0-7.492188 3.355468-7.492188 7.492187 0 4.140625 3.355469 7.492188 7.492188 7.492188h69.589843c4.136719 0 7.492188-3.351563 7.492188-7.492188 0-4.136719-3.355469-7.492187-7.492188-7.492187zm0 0"/><path d="m123.210938 339.96875c-4.136719 0-7.492188 3.355469-7.492188 7.492188v53.617187c0 4.136719 3.355469 7.492187 7.492188 7.492187 4.140624 0 7.496093-3.355468 7.496093-7.492187v-53.617187c0-4.136719-3.355469-7.492188-7.496093-7.492188zm0 0"/><path d="m147.160156 339.96875c-4.136718 0-7.492187 3.355469-7.492187 7.492188v53.617187c0 4.136719 3.355469 7.492187 7.492187 7.492187 4.136719 0 7.492188-3.355468 7.492188-7.492187v-53.617187c0-4.136719-3.355469-7.492188-7.492188-7.492188zm0 0"/><path d="m171.105469 339.96875c-4.136719 0-7.492188 3.355469-7.492188 7.492188v53.617187c0 4.136719 3.355469 7.492187 7.492188 7.492187 4.140625 0 7.492187-3.355468 7.492187-7.492187v-53.617187c0-4.136719-3.351562-7.492188-7.492187-7.492188zm0 0"/><path d="m487.242188 312.019531h-37.738282c1.449219-3.195312 2.261719-6.738281 2.261719-10.46875v-18.671875c0-3.730468-.8125-7.273437-2.261719-10.46875h.136719c13.59375 0 24.652344-11.058594 24.652344-24.65625v-223.101562c0-13.59375-11.058594-24.652344-24.65625-24.652344h-364.714844c-13.59375 0-24.65625 11.058594-24.65625 24.652344v223.105468c0 3.429688.707031 6.695313 1.980469 9.667969h-36.789063c-14.035156 0-25.457031 11.417969-25.457031 25.457031v18.667969c0 14.039063 11.421875 25.457031 25.457031 25.457031h23.855469c-.4375 1.648438-.691406 3.378907-.691406 5.1875v84.1875c0 11.125 9.050781 20.175782 20.171875 20.175782h381.050781c1.695312 0 3.074219 1.378906 3.074219 3.074218v54.308594c0 1.695313-1.378907 3.074219-3.074219 3.074219h-358.632812c-1.695313 0-3.074219-1.378906-3.074219-3.074219v-30.523437c0-4.140625-3.355469-7.492188-7.492188-7.492188s-7.492187 3.351563-7.492187 7.492188v30.523437c0 9.957032 8.101562 18.058594 18.058594 18.058594h358.632812c9.960938 0 18.0625-8.101562 18.0625-18.058594v-54.3125c0-1.050781-.109375-2.070312-.28125-3.074218h19.617188c11.121093 0 20.171874-9.046876 20.171874-20.171876v-84.1875c0-11.125-9.050781-20.175781-20.171874-20.175781zm-193.402344-44.84375c.003906-.015625.011718-.035156.015625-.050781l9.117187-28.21875c.003906-.015625.011719-.035156.015625-.054688l4.839844-14.984374c3.1875.445312 6.5.210937 9.734375-.777344 3.730469-1.144532 7.773438.804687 9.207031 4.429687 3.261719 8.265625 10.90625 13.726563 19.695313 14.203125l-24.152344 74.761719c-.214844.484375-.382812.992187-.492188 1.519531l-14.300781 44.273438-13.476562-14.863282c-1.789063-1.972656-4.496094-2.847656-7.105469-2.292968l-19.621094 4.167968zm60.871094-45.15625c-1.746094 4.417969-5.800782 4.761719-7.003907 4.761719-1.199219 0-5.253906-.34375-7-4.761719-3.453125-8.753906-11.992187-14.234375-21.019531-14.234375-2.164062 0-4.355469.3125-6.511719.976563-4.542969 1.390625-7.339843-1.566407-8.089843-2.503907-.75-.941406-3.007813-4.324218-.640626-8.445312 5.8125-10.113281 2.824219-23.203125-6.800781-29.792969-3.921875-2.683593-3.355469-6.714843-3.085937-7.882812.265625-1.171875 1.503906-5.050781 6.199218-5.769531 11.535157-1.761719 19.902344-12.253907 19.054688-23.890626-.347656-4.738281 3.15625-6.808593 4.238281-7.328124 1.082031-.523438 4.886719-1.972657 8.375 1.253906 8.570313 7.917968 21.992188 7.917968 30.5625 0 3.488281-3.226563 7.289063-1.777344 8.371094-1.253906 1.085937.519531 4.589844 2.589843 4.242187 7.328124-.847656 11.632813 7.519532 22.128907 19.054688 23.890626 4.695312.71875 5.933594 4.59375 6.199219 5.765624.265625 1.171876.835937 5.203126-3.085938 7.886719-9.625 6.589844-12.613281 19.675781-6.800781 29.792969 2.367188 4.121094.109375 7.503906-.640625 8.445312-.75.9375-3.546875 3.894532-8.089844 2.503907-11.152343-3.417969-23.246093 2.40625-27.527343 13.257812zm46.332031-5.25c.34375-.378906.683593-.765625 1.007812-1.171875 5.800781-7.273437 6.550781-17.1875 1.917969-25.253906-1.945312-3.378906-.945312-7.753906 2.273438-9.960938 7.675781-5.253906 11.296874-14.515624 9.226562-23.585937s-9.351562-15.839844-18.546875-17.246094c-3.855469-.585937-6.65625-4.097656-6.371094-7.988281.675781-9.277344-4.304687-17.882812-12.683593-21.917969-8.382813-4.039062-18.214844-2.566406-25.050782 3.75-2.863281 2.644531-7.351562 2.644531-10.214844 0-6.835937-6.316406-16.667968-7.789062-25.050781-3.75-8.382812 4.035157-13.359375 12.640625-12.683593 21.921875.285156 3.886719-2.515626 7.398438-6.371094 7.984375-9.195313 1.40625-16.476563 8.175781-18.546875 17.246094-2.070313 9.070313 1.550781 18.332031 9.226562 23.585937 3.21875 2.207032 4.21875 6.582032 2.273438 9.960938-4.632813 8.066406-3.882813 17.980469 1.917969 25.253906.324218.40625.664062.792969 1.007812 1.171875l-4 12.382813h-186.851562v-185.894532h327.511718v185.894532h-25.992187zm-53.335938 69.847657 8.207031 25.402343h-16.410156zm25.664063 30.691406c-.003906-.019532-.011719-.039063-.019532-.058594l-17.769531-55.007812 9.113281-28.210938c1.640626-1.894531 2.992188-4.074219 3.953126-6.511719 1.433593-3.625 5.476562-5.574219 9.207031-4.429687 3.234375.988281 6.546875 1.21875 9.734375.777344l4.835937 14.980468c.007813.023438.015625.046875.023438.070313l9.109375 28.199219c.007812.023437.015625.046874.023437.070312l17.378907 53.796875c.113281.558594.289062 1.09375.515624 1.601563l8.628907 26.703124-19.621094-4.167968c-2.609375-.554688-5.316406.320312-7.109375 2.292968l-13.472656 14.863282zm63.410156-34.425782v18.667969c0 3.929688-2.183594 7.359375-5.394531 9.148438l-12.367188-38.289063h7.289063c5.773437 0 10.472656 4.695313 10.472656 10.472656zm-361.527344-35.125v-223.105468c0-5.328125 4.335938-9.664063 9.667969-9.664063h364.714844c5.332031 0 9.667969 4.335938 9.667969 9.664063v223.105468c0 5.332032-4.335938 9.667969-9.667969 9.667969h-35.460938l-4.292969-13.285156h22.589844c7.46875 0 13.550782-6.078125 13.550782-13.550781v-188.769532c0-7.472656-6.082032-13.550781-13.550782-13.550781h-330.386718c-7.46875 0-13.550782 6.078125-13.550782 13.550781v188.769532c0 7.472656 6.082032 13.550781 13.550782 13.550781h183.445312l-4.289062 13.28125h-196.320313c-5.332031 0-9.667969-4.335937-9.667969-9.664063zm-60.265625 53.792969v-18.667969c0-5.777343 4.695313-10.472656 10.46875-10.472656h250.945313l-12.796875 39.609375h-238.148438c-5.773437 0-10.46875-4.695312-10.46875-10.46875zm477.4375 114.832031c0 2.859376-2.324219 5.1875-5.183593 5.1875h-418.449219c-2.859375 0-5.1875-2.328124-5.1875-5.1875v-84.1875c0-3.101562 2.675781-5.1875 6.660156-5.1875h188.496094l-6.285157 19.460938c-1.546874 4.777344-.460937 9.855469 2.902344 13.582031 3.363282 3.730469 8.304688 5.332031 13.210938 4.289063l17.246094-3.664063 11.839843 13.058594c2.6875 2.960937 6.367188 4.574219 10.234375 4.574219.988282 0 1.992188-.105469 2.988282-.320313 4.910156-1.054687 8.761718-4.539062 10.304687-9.316406l13.457031-41.664063h26.09375l13.460938 41.664063c1.542968 4.777344 5.394531 8.257813 10.300781 9.316406 1 .214844 2 .320313 2.988281.320313 3.867188 0 7.550782-1.613282 10.234375-4.574219l11.84375-13.058594 17.242188 3.664063c4.914062 1.042968 9.851562-.5625 13.214843-4.289063 3.359376-3.726562 4.445313-8.804687 2.902344-13.582031l-6.285156-19.460938h50.582031c2.859375 0 5.1875 2.328126 5.1875 5.1875zm0 0"/></svg>